<svg xmlns="http://www.w3.org/2000/svg" xmlns:xlink="http://www.w3.org/1999/xlink" version="1.1" x="0px" y="0px" viewBox="0 0 100 125" enable-background="new 0 0 100 100" xml:space="preserve"><g><path fill="#000000" d="M53.1,81.6c-2.3,0-4.2-1.9-4.2-4.2h-7c0,6.2,5,11.2,11.2,11.2s11.2-5,11.2-11.2h-7   C57.3,79.7,55.4,81.6,53.1,81.6z"/><path fill="#000000" d="M54.3,22c9.3,0.6,16.6,8.8,16.6,18.5v17.4l10.7,10.7c1-1.6,1.5-3.5,1.5-5.5c0-3.1-2.3-5.7-5.3-6.1V40.5   C77.9,27,67.7,15.8,54.7,15c-7.6-0.5-14.5,2.5-19.3,7.4l4.9,4.9C43.8,23.7,48.8,21.6,54.3,22z"/><path fill="#000000" d="M85.2,82.1c-0.1-0.2-0.3-0.4-0.5-0.6l-8.4-8.4l-6.3-6.3L36.5,33.2L31.3,28L23,19.7l-1.8-1.8   c-1.4-1.4-3.6-1.4-4.9,0c-1.4,1.4-1.4,3.6,0,4.9l12.5,12.5c-0.3,1.4-0.4,2.9-0.4,4.4v17.3c-3,0.4-5.3,3-5.3,6.1   c0,5.9,4.8,10.7,10.7,10.7h33.5l12.6,12.6c0.7,0.7,1.6,1,2.5,1c0.9,0,1.8-0.3,2.5-1C85.9,85.3,86.1,83.5,85.2,82.1z M33.7,66.9   c-1.8,0-3.3-1.3-3.6-2.9c2.9-0.5,5.2-3,5.2-6.1v-16l24.9,24.9H33.7z"/></g><text x="0" y="115" fill="#000000" font-size="5px" font-weight="bold" font-family="'Helvetica Neue', Helvetica, Arial-Unicode, Arial, Sans-serif">Created by Ryan Beck</text><text x="0" y="120" fill="#000000" font-size="5px" font-weight="bold" font-family="'Helvetica Neue', Helvetica, Arial-Unicode, Arial, Sans-serif">from the Noun Project</text></svg>